<mxfile host="app.diagrams.net" modified="2023-12-26T06:08:46.480Z" agent="Mozilla/5.0 (Windows NT 10.0; Win64; x64) AppleWebKit/537.36 (KHTML, like Gecko) Chrome/120.0.0.0 Safari/537.36" etag="aO7TiljlGkREAI3iJ3y3" version="22.1.11" type="github">
  <diagram name="Page-1" id="UxMpbINqFszEgZ0nIaNx">
    <mxGraphModel dx="1434" dy="738" grid="1" gridSize="10" guides="1" tooltips="1" connect="1" arrows="1" fold="1" page="1" pageScale="1" pageWidth="827" pageHeight="1169" math="0" shadow="0">
      <root>
        <mxCell id="0" />
        <mxCell id="1" parent="0" />
        <mxCell id="TAGpU3DyTfSelaxlEneq-6" value="" style="rounded=0;whiteSpace=wrap;html=1;" vertex="1" parent="1">
          <mxGeometry x="10" y="240" width="810" height="640" as="geometry" />
        </mxCell>
        <mxCell id="TAGpU3DyTfSelaxlEneq-7" value="" style="rounded=0;whiteSpace=wrap;html=1;" vertex="1" parent="1">
          <mxGeometry x="10" y="240" width="810" height="60" as="geometry" />
        </mxCell>
        <mxCell id="TAGpU3DyTfSelaxlEneq-8" value="LUMETSA" style="whiteSpace=wrap;html=1;fontStyle=1" vertex="1" parent="1">
          <mxGeometry x="10" y="240" width="120" height="60" as="geometry" />
        </mxCell>
        <mxCell id="TAGpU3DyTfSelaxlEneq-9" value="Login" style="whiteSpace=wrap;html=1;" vertex="1" parent="1">
          <mxGeometry x="700" y="240" width="120" height="60" as="geometry" />
        </mxCell>
        <mxCell id="TAGpU3DyTfSelaxlEneq-10" value="Register" style="whiteSpace=wrap;html=1;" vertex="1" parent="1">
          <mxGeometry x="580" y="240" width="120" height="60" as="geometry" />
        </mxCell>
        <mxCell id="TAGpU3DyTfSelaxlEneq-11" value="&lt;u&gt;Browse Courses&lt;/u&gt;" style="whiteSpace=wrap;html=1;" vertex="1" parent="1">
          <mxGeometry x="460" y="240" width="120" height="60" as="geometry" />
        </mxCell>
        <mxCell id="TAGpU3DyTfSelaxlEneq-12" value="&amp;nbsp;Search course" style="rounded=0;whiteSpace=wrap;html=1;align=left;" vertex="1" parent="1">
          <mxGeometry x="40" y="340" width="750" height="40" as="geometry" />
        </mxCell>
        <mxCell id="TAGpU3DyTfSelaxlEneq-14" value="" style="rounded=0;whiteSpace=wrap;html=1;" vertex="1" parent="1">
          <mxGeometry x="850" y="640" width="200" height="200" as="geometry" />
        </mxCell>
        <mxCell id="TAGpU3DyTfSelaxlEneq-15" value="" style="rounded=0;whiteSpace=wrap;html=1;" vertex="1" parent="1">
          <mxGeometry x="40" y="410" width="200" height="450" as="geometry" />
        </mxCell>
        <mxCell id="TAGpU3DyTfSelaxlEneq-19" value="" style="group" vertex="1" connectable="0" parent="1">
          <mxGeometry x="310" y="410" width="480" height="130" as="geometry" />
        </mxCell>
        <mxCell id="TAGpU3DyTfSelaxlEneq-13" value="" style="rounded=0;whiteSpace=wrap;html=1;" vertex="1" parent="TAGpU3DyTfSelaxlEneq-19">
          <mxGeometry width="480" height="130" as="geometry" />
        </mxCell>
        <mxCell id="TAGpU3DyTfSelaxlEneq-17" value="&lt;b&gt;&amp;nbsp;Title&lt;/b&gt;" style="rounded=0;whiteSpace=wrap;html=1;align=left;" vertex="1" parent="TAGpU3DyTfSelaxlEneq-19">
          <mxGeometry width="480" height="50" as="geometry" />
        </mxCell>
        <mxCell id="TAGpU3DyTfSelaxlEneq-18" value="&lt;b&gt;&amp;nbsp;Description and details&lt;/b&gt;" style="rounded=0;whiteSpace=wrap;html=1;align=left;" vertex="1" parent="TAGpU3DyTfSelaxlEneq-19">
          <mxGeometry y="50" width="480" height="80" as="geometry" />
        </mxCell>
        <mxCell id="TAGpU3DyTfSelaxlEneq-20" value="" style="group" vertex="1" connectable="0" parent="1">
          <mxGeometry x="310" y="570" width="480" height="130" as="geometry" />
        </mxCell>
        <mxCell id="TAGpU3DyTfSelaxlEneq-21" value="" style="rounded=0;whiteSpace=wrap;html=1;" vertex="1" parent="TAGpU3DyTfSelaxlEneq-20">
          <mxGeometry width="480" height="130" as="geometry" />
        </mxCell>
        <mxCell id="TAGpU3DyTfSelaxlEneq-22" value="&lt;b&gt;&amp;nbsp;Title&lt;/b&gt;" style="rounded=0;whiteSpace=wrap;html=1;align=left;" vertex="1" parent="TAGpU3DyTfSelaxlEneq-20">
          <mxGeometry width="480" height="50" as="geometry" />
        </mxCell>
        <mxCell id="TAGpU3DyTfSelaxlEneq-23" value="&lt;b&gt;&amp;nbsp;Description and details&lt;/b&gt;" style="rounded=0;whiteSpace=wrap;html=1;align=left;" vertex="1" parent="TAGpU3DyTfSelaxlEneq-20">
          <mxGeometry y="50" width="480" height="80" as="geometry" />
        </mxCell>
        <mxCell id="TAGpU3DyTfSelaxlEneq-24" value="" style="group" vertex="1" connectable="0" parent="1">
          <mxGeometry x="310" y="730" width="480" height="130" as="geometry" />
        </mxCell>
        <mxCell id="TAGpU3DyTfSelaxlEneq-25" value="" style="rounded=0;whiteSpace=wrap;html=1;" vertex="1" parent="TAGpU3DyTfSelaxlEneq-24">
          <mxGeometry width="480" height="130" as="geometry" />
        </mxCell>
        <mxCell id="TAGpU3DyTfSelaxlEneq-26" value="&lt;b&gt;&amp;nbsp;Title&lt;/b&gt;" style="rounded=0;whiteSpace=wrap;html=1;align=left;" vertex="1" parent="TAGpU3DyTfSelaxlEneq-24">
          <mxGeometry width="480" height="50" as="geometry" />
        </mxCell>
        <mxCell id="TAGpU3DyTfSelaxlEneq-27" value="&lt;b&gt;&amp;nbsp;Description and details&lt;/b&gt;" style="rounded=0;whiteSpace=wrap;html=1;align=left;" vertex="1" parent="TAGpU3DyTfSelaxlEneq-24">
          <mxGeometry y="50" width="480" height="80" as="geometry" />
        </mxCell>
        <mxCell id="TAGpU3DyTfSelaxlEneq-28" value="&lt;b&gt;Filters&lt;/b&gt;" style="whiteSpace=wrap;html=1;" vertex="1" parent="1">
          <mxGeometry x="40" y="410" width="200" height="60" as="geometry" />
        </mxCell>
      </root>
    </mxGraphModel>
  </diagram>
</mxfile>
